. 
  
http://www.torrenting.com/        :     Greatest Movie Tracker on The Net!!!
 
http://www.Torrenting.com          :     Once & For all ;)


               www . Torrenting . Com 

(((((((((((((= Enjoy No RAR releases =))))))))))))))))))))


...................................NFO:....................................

.[img]http://img52.imageshack.us/img52/5908/greenqwy.jpg[/img]

[color=blue][size=5][b]The Green Hornet 2011 BDRip XVID AC3 HQ Hive-CM8[/b][/size][/color]



[b]Thx Hive

CM8 Doing It Right The First Time :D

Why download a touched up rip of a rip BRrip
Get the real deal BDRip


Enjoy

Source Bluray

Video: 720x304 @bitrate 1800 2pass
Audio: DTS to AC3 5.1 @448
Sample: yes included
Subs: yes english in srt /subs[/b]


[url]http://www.imdb.com/title/tt0990407/[/url]


General
Complete name                    : The.Green.Hornet.2011.BDRip.XVID.AC3.HQ.Hive-CM8.avi
Format                           : AVI
Format/Info                      : Audio Video Interleave
File size                        : 1.88 GiB
Duration                         : 1h 58mn
Overall bit rate                 : 2 259 Kbps
Writing application              : Nandub v1.0rc2
Writing library                  : Nandub build 1853/release

Video
ID                               : 0
Format                           : MPEG-4 Visual
Format profile                   : Advanced Simple@L5
Format settings, BVOP            : Yes
Format settings, QPel            : Yes
Format settings, GMC             : No warppoints
Format settings, Matrix          : Default (H.263)
Muxing mode                      : Packed bitstream
Codec ID                         : XVID
Codec ID/Hint                    : XviD
Duration                         : 1h 58mn
Bit rate                         : 1 802 Kbps
Width                            : 720 pixels
Height                           : 304 pixels
Display aspect ratio             : 2.40:1
Frame rate                       : 23.976 fps
Color space                      : YUV
Chroma subsampling               : 4:2:0
Bit depth                        : 8 bits
Scan type                        : Progressive
Bits/(Pixel*Frame)               : 0.343
Stream size                      : 1.50 GiB (80%)
Writing library                  : XviD 1.2.1 (UTC 2008-12-04)

Audio
ID                               : 1
Format                           : AC-3
Format/Info                      : Audio Coding 3
Mode extension                   : CM (complete main)
Codec ID                         : 2000
Duration                         : 1h 58mn
Bit rate mode                    : Constant
Bit rate                         : 448 Kbps
Channel(s)                       : 6 channels
Channel positions                : Front: L C R, Side: L R, LFE
Sampling rate                    : 48.0 KHz
Bit depth                        : 16 bits
Stream size                      : 381 MiB (20%)
Alignment                        : Split accross interleaves
Interleave, duration             : 42 ms (1.00 video frame)
Interleave, preload duration     : 500 ms


Seth Rogen  ...  Britt Reid / The Green Hornet  
Jay Chou  ...  Kato  
Cameron Diaz  ...  Lenore Case  
Tom Wilkinson  ...  James Reid  
Christoph Waltz  ...  Chudnofsky  
David Harbour  ...  Scanlon  
Edward James Olmos  ...  Axford  
Jamie Harris  ...  Popeye   



Following the death of his father, Britt Reid, heir to his father's 
large company, teams up with his late dad's assistant Kato to become a masked crime fighting team.



[img]http://img822.imageshack.us/img822/9843/grgrgrggrr.png[/img]
[img]http://img692.imageshack.us/img692/8374/92074850.png[/img]
[img]http://img36.imageshack.us/img36/2813/grgrb.png[/img]
[img]http://img52.imageshack.us/img52/8332/grgrggrr.png[/img]
[img]http://img199.imageshack.us/img199/5303/grgrgr.png[/img]
[img]http://img228.imageshack.us/img228/5470/grgrgrgggrgrrr.png[/img]
[img]http://img508.imageshack.us/img508/2919/grgrgrgggrrr.png[/img]




ViSiON,LUSi,,MAGNET,CLASSiFiED,THC,T0XiCiNK,IMAGiNE,WBZ,FLAWL3SS,NOVA
Vik,Rapeseed,D2U,SAFC,goldadvance,MEMORY100,KaN1vE,Unevano,Pinnz,Wayne,Mr Hive
and all P2P groups 
Great Work Guys :D

CM8@hushmail.com